<svg width="214" height="65" viewBox="0 0 214 65" fill="none" xmlns="http://www.w3.org/2000/svg">
<path d="M29.4937 0.223326C37.9206 5.33976 46.3478 10.1554 55.0753 14.9711C55.6772 15.5729 56.2792 16.4758 56.2792 17.0776V46.873C56.2792 47.7758 55.6773 48.6786 54.7744 48.9796C46.3476 54.096 37.9203 58.9116 29.4939 63.7273C28.591 64.3292 27.6883 64.3292 26.7854 63.7273C18.3586 58.9118 9.93134 53.7953 1.20381 48.9796C0.601929 48.3777 0 47.7758 0 46.873V17.0776C0 16.1748 0.601884 15.272 1.50477 14.9711C9.93157 10.1556 18.3588 5.03904 26.7853 0.223326C27.6881 -0.0776158 28.5909 -0.0776158 29.4937 0.223326ZM27.989 5.33976C20.4649 9.8544 12.6391 14.0675 5.11586 18.5822V45.368C12.6399 49.8827 20.4657 54.3972 27.989 58.9115C35.8139 54.3969 43.6388 49.8823 51.1632 45.368V18.5822C43.6391 14.0675 35.8133 9.8544 27.989 5.33976Z" fill="#1C1D53"/>
<rect x="20.8623" y="4.63391" width="14.681" height="6.18149" fill="#1C1D53"/>
<path d="M16.2266 10.0406C16.2266 9.61383 16.5725 9.26788 16.9992 9.26788H39.4071C39.8339 9.26788 40.1798 9.61383 40.1798 10.0406V53.311C40.1798 56.7249 37.4123 59.4925 33.9983 59.4925H22.4081C18.9941 59.4925 16.2266 56.7249 16.2266 53.311V10.0406Z" fill="#1C1D53"/>
<rect x="3.86426" y="11.5883" width="23.9533" height="40.9524" rx="6.18149" fill="#1C1D53"/>
<rect x="27.8174" y="10.8139" width="23.9533" height="41.7251" rx="6.18149" fill="#1C1D53"/>
<path d="M14.0977 38.7732L15.5869 36.9452L28.629 37.5008L27.1159 39.358" fill="white"/>
<path d="M13.8018 21.575H18.0332L32.0429 40.6847H27.7441" fill="white"/>
<path d="M17.6273 27.5658L19.9053 30.753L10.3464 47.0298H6.81738" fill="white"/>
<path d="M37.2568 40.34H33.0254L19.0157 21.2302H23.3145" fill="white"/>
<path d="M37.6275 40.1838L35.068 36.4692L45.8083 17.4987H49.7734" fill="white"/>
<path d="M63.916 27.6486H61.4079L68.6563 10.0419H70.5875L77.6602 27.6486H75.0769L72.9451 22.3816H66.0729L63.916 27.6486ZM69.5842 13.804L66.9759 20.1494H72.0672L69.5842 13.804ZM85.5409 15.058C87.0624 15.058 88.2747 15.5178 89.1776 16.4375C90.0805 17.3404 90.532 18.5526 90.532 20.0742V27.6235H88.1493V20.2247C88.1493 19.2883 87.9236 18.586 87.4721 18.1179C87.0206 17.633 86.3602 17.3905 85.4907 17.3905C84.5544 17.3905 83.802 17.633 83.2335 18.1179C82.6817 18.586 82.4058 19.2298 82.4058 20.0491V27.6235H80.0231V15.058H82.4309V15.8606C83.3171 15.3256 84.3537 15.058 85.5409 15.058ZM94.2374 12.8008C93.8361 12.8008 93.5017 12.667 93.2342 12.3995C92.9667 12.0985 92.8329 11.7641 92.8329 11.3962C92.8329 11.0284 92.975 10.7023 93.2593 10.4181C93.5101 10.1506 93.8445 10.0168 94.2625 10.0168C94.6638 10.0168 94.9899 10.1506 95.2407 10.4181C95.5082 10.6689 95.642 10.9949 95.642 11.3962C95.642 11.7975 95.5082 12.1319 95.2407 12.3995C94.9731 12.667 94.6471 12.8008 94.2625 12.8008H94.2374ZM95.4162 27.5984H93.159V15.058H95.4162V27.5984ZM104.122 27.8241C103.152 27.8241 102.241 27.6151 101.388 27.1971C100.552 26.7791 99.8497 26.1939 99.2812 25.4414C98.8465 24.8897 98.5121 24.271 98.278 23.5855C98.0606 22.8832 97.9519 22.1642 97.9519 21.4285C97.9519 20.6427 98.0773 19.8902 98.3281 19.1713C98.5957 18.4356 98.9719 17.7751 99.4568 17.1899C100.042 16.5211 100.736 16.0027 101.538 15.6349C102.341 15.267 103.202 15.0831 104.122 15.0831C104.841 15.0831 105.543 15.2169 106.229 15.4844C106.914 15.7352 107.524 16.0863 108.059 16.5378C108.477 16.8889 108.845 17.3153 109.163 17.8169C109.497 18.3018 109.74 18.7951 109.89 19.2967L107.809 20.0992C107.558 19.2465 107.098 18.5777 106.429 18.0928C105.76 17.5912 105 17.3404 104.147 17.3404C103.545 17.3404 102.985 17.4658 102.466 17.7166C101.965 17.9507 101.538 18.2851 101.187 18.7198C100.569 19.4388 100.259 20.325 100.259 21.3784C100.259 22.3816 100.544 23.2678 101.112 24.0369C101.48 24.4884 101.923 24.8395 102.441 25.0903C102.976 25.3411 103.545 25.4665 104.147 25.4665C104.849 25.4665 105.485 25.2993 106.053 24.9649C106.638 24.6138 107.131 24.1205 107.533 23.4851L109.564 24.5385C108.177 26.7289 106.362 27.8241 104.122 27.8241ZM118.377 27.8241C117.407 27.8241 116.496 27.6151 115.643 27.1971C114.807 26.7791 114.105 26.1939 113.536 25.4414C113.101 24.8897 112.767 24.271 112.533 23.5855C112.315 22.8832 112.207 22.1642 112.207 21.4285C112.207 20.6427 112.332 19.8902 112.583 19.1713C112.851 18.4356 113.227 17.7751 113.712 17.1899C114.297 16.5211 114.991 16.0027 115.793 15.6349C116.596 15.267 117.457 15.0831 118.377 15.0831C119.096 15.0831 119.798 15.2169 120.483 15.4844C121.169 15.7352 121.779 16.0863 122.314 16.5378C122.732 16.8889 123.1 17.3153 123.418 17.8169C123.752 18.3018 123.995 18.7951 124.145 19.2967L122.064 20.0992C121.813 19.2465 121.353 18.5777 120.684 18.0928C120.015 17.5912 119.254 17.3404 118.402 17.3404C117.8 17.3404 117.24 17.4658 116.721 17.7166C116.22 17.9507 115.793 18.2851 115.442 18.7198C114.824 19.4388 114.514 20.325 114.514 21.3784C114.514 22.3816 114.798 23.2678 115.367 24.0369C115.735 24.4884 116.178 24.8395 116.696 25.0903C117.231 25.3411 117.8 25.4665 118.402 25.4665C119.104 25.4665 119.739 25.2993 120.308 24.9649C120.893 24.6138 121.386 24.1205 121.788 23.4851L123.819 24.5385C122.431 26.7289 120.617 27.8241 118.377 27.8241ZM132.381 27.799C131.294 27.799 130.291 27.5231 129.371 26.9714C128.468 26.4029 127.758 25.6337 127.239 24.6639C126.721 23.6942 126.462 22.624 126.462 21.4536C126.462 20.2665 126.721 19.188 127.239 18.2182C127.758 17.2484 128.468 16.4793 129.371 15.9108C130.274 15.3423 131.277 15.058 132.381 15.058C133.1 15.058 133.769 15.2001 134.387 15.4844C135.023 15.7519 135.583 16.1365 136.068 16.6381V15.058H138.275V27.5984H136.068V26.2189C135.583 26.7038 135.023 27.0884 134.387 27.3727C133.752 27.6569 133.083 27.799 132.381 27.799ZM132.356 25.5919C133.041 25.5919 133.668 25.4164 134.237 25.0652C134.805 24.6974 135.248 24.1958 135.566 23.5604C135.884 22.925 136.043 22.2228 136.043 21.4536C136.043 20.6677 135.884 19.9571 135.566 19.3217C135.248 18.6864 134.805 18.1931 134.237 17.842C133.685 17.4741 133.058 17.2902 132.356 17.2902C131.67 17.2902 131.043 17.4741 130.475 17.842C129.906 18.2098 129.463 18.7114 129.145 19.3468C128.828 19.9822 128.669 20.6845 128.669 21.4536C128.669 22.2228 128.828 22.925 129.145 23.5604C129.48 24.1958 129.923 24.6974 130.475 25.0652C131.043 25.4164 131.67 25.5919 132.356 25.5919Z" fill="#1C1D53"/>
<path d="M155.393 27.6486H153.462L146.239 10.0419H148.847L154.49 24.0871L160.008 10.0419H162.541L155.393 27.6486ZM166.258 12.8008C165.857 12.8008 165.522 12.667 165.255 12.3995C164.987 12.0985 164.853 11.7641 164.853 11.3962C164.853 11.0284 164.995 10.7023 165.28 10.4181C165.53 10.1506 165.865 10.0168 166.283 10.0168C166.684 10.0168 167.01 10.1506 167.261 10.4181C167.529 10.6689 167.662 10.9949 167.662 11.3962C167.662 11.7975 167.529 12.1319 167.261 12.3995C166.994 12.667 166.667 12.8008 166.283 12.8008H166.258ZM167.437 27.5984H165.179V15.058H167.437V27.5984ZM174.713 27.8241C173.877 27.8241 173.049 27.6653 172.23 27.3476C171.41 27.0299 170.658 26.5784 169.972 25.9932L170.649 23.8614C171.235 24.48 171.895 24.9482 172.631 25.2659C173.367 25.5668 174.052 25.7173 174.687 25.7173C175.44 25.7173 175.975 25.6087 176.293 25.3913C176.627 25.1572 176.794 24.7893 176.794 24.2877C176.794 23.9868 176.602 23.7192 176.217 23.4851C175.833 23.2511 175.181 22.9919 174.261 22.7076C173.291 22.3565 172.639 22.0973 172.305 21.9301C170.9 21.2446 170.198 20.2247 170.198 18.8703C170.198 17.7333 170.633 16.822 171.502 16.1365C172.372 15.4342 173.475 15.0831 174.813 15.0831C175.532 15.0831 176.234 15.2085 176.92 15.4593C177.605 15.6934 178.241 16.0445 178.826 16.5127L178.299 18.6195C177.563 18.1012 176.92 17.7584 176.368 17.5912C175.816 17.424 175.298 17.3404 174.813 17.3404C174.144 17.3404 173.601 17.4825 173.183 17.7667C172.781 18.0343 172.581 18.3938 172.581 18.8452C172.581 19.3134 172.882 19.6896 173.484 19.9738C173.701 20.0909 174.253 20.3166 175.139 20.651C176.46 21.0858 177.455 21.5957 178.124 22.181C178.792 22.7494 179.127 23.4517 179.127 24.2877C179.127 25.4414 178.734 26.3193 177.948 26.9212C177.179 27.5231 176.1 27.8241 174.713 27.8241ZM182.888 12.8008C182.487 12.8008 182.153 12.667 181.885 12.3995C181.618 12.0985 181.484 11.7641 181.484 11.3962C181.484 11.0284 181.626 10.7023 181.91 10.4181C182.161 10.1506 182.496 10.0168 182.914 10.0168C183.315 10.0168 183.641 10.1506 183.892 10.4181C184.159 10.6689 184.293 10.9949 184.293 11.3962C184.293 11.7975 184.159 12.1319 183.892 12.3995C183.624 12.667 183.298 12.8008 182.914 12.8008H182.888ZM184.067 27.5984H181.81V15.058H184.067V27.5984ZM192.773 27.8241C191.619 27.8241 190.574 27.5399 189.638 26.9714C188.701 26.4029 187.957 25.6337 187.406 24.6639C186.871 23.6774 186.603 22.599 186.603 21.4285C186.603 20.2581 186.871 19.188 187.406 18.2182C187.957 17.2484 188.701 16.4876 189.638 15.9358C190.574 15.3674 191.619 15.0831 192.773 15.0831C193.91 15.0831 194.947 15.3674 195.883 15.9358C196.819 16.4876 197.555 17.2484 198.09 18.2182C198.625 19.188 198.893 20.2581 198.893 21.4285C198.893 22.599 198.625 23.6774 198.09 24.6639C197.555 25.6337 196.819 26.4029 195.883 26.9714C194.947 27.5399 193.91 27.8241 192.773 27.8241ZM192.798 25.4665C193.517 25.4665 194.169 25.291 194.754 24.9398C195.339 24.572 195.799 24.0787 196.134 23.4601C196.468 22.8247 196.635 22.1308 196.635 21.3784C196.635 20.6427 196.468 19.9655 196.134 19.3468C195.799 18.7282 195.339 18.2433 194.754 17.8921C194.169 17.5243 193.517 17.3404 192.798 17.3404C192.062 17.3404 191.393 17.5159 190.791 17.8671C190.206 18.2182 189.746 18.7031 189.412 19.3217C189.078 19.9404 188.91 20.6259 188.91 21.3784C188.91 22.1475 189.078 22.8414 189.412 23.4601C189.746 24.0787 190.206 24.572 190.791 24.9398C191.393 25.291 192.062 25.4665 192.798 25.4665ZM206.719 15.058C208.24 15.058 209.452 15.5178 210.355 16.4375C211.258 17.3404 211.71 18.5526 211.71 20.0742V27.6235H209.327V20.2247C209.327 19.2883 209.101 18.586 208.65 18.1179C208.198 17.633 207.538 17.3905 206.668 17.3905C205.732 17.3905 204.98 17.633 204.411 18.1179C203.859 18.586 203.583 19.2298 203.583 20.0491V27.6235H201.201V15.058H203.608V15.8606C204.495 15.3256 205.531 15.058 206.719 15.058Z" fill="#1C1D53"/>
<path d="M69.3632 51.3625H67.8031V39.3055H62.8532V37.8224H74.3324V39.3055H69.3632V51.3625ZM80.0991 41.6937C80.3688 41.6937 80.7283 41.713 81.1777 41.7515L80.8503 43.2346C80.5036 43.1961 80.2853 43.1768 80.1954 43.1768C79.3993 43.1768 78.7894 43.3887 78.3657 43.8124C77.9163 44.2361 77.6916 45.0258 77.6916 46.1814V51.401H76.17V46.0081C76.17 44.5443 76.5167 43.4593 77.21 42.7531C77.9548 42.0468 78.9178 41.6937 80.0991 41.6937ZM86.621 51.4588C85.7864 51.4588 85.0224 51.2469 84.329 50.8232C83.6356 50.3866 83.0899 49.796 82.6919 49.0512C82.2938 48.3065 82.0948 47.4847 82.0948 46.5859C82.0948 45.6742 82.2938 44.846 82.6919 44.1013C83.0899 43.3566 83.6292 42.7659 84.3098 42.3293C85.0031 41.8928 85.7736 41.6745 86.621 41.6745C87.2373 41.6745 87.8023 41.8029 88.3159 42.0597C88.8295 42.3165 89.2725 42.676 89.6449 43.1383V41.6745H91.1472V51.3047H89.6449V49.995C89.2854 50.4444 88.8424 50.8039 88.3159 51.0736C87.7895 51.3304 87.2245 51.4588 86.621 51.4588ZM86.6018 49.9757C87.1667 49.9757 87.6803 49.8281 88.1426 49.5327C88.6048 49.2246 88.9644 48.8137 89.2212 48.3001C89.4908 47.7865 89.6256 47.2151 89.6256 46.5859C89.6256 45.9439 89.4908 45.3661 89.2212 44.8524C88.9644 44.326 88.6048 43.9151 88.1426 43.6198C87.6803 43.3245 87.1667 43.1768 86.6018 43.1768C86.0368 43.1768 85.5167 43.3309 85.0417 43.639C84.5794 43.9344 84.2135 44.3453 83.9438 44.8717C83.687 45.3853 83.5586 45.9567 83.5586 46.5859C83.5586 47.2151 83.6934 47.7929 83.9631 48.3193C84.2327 48.8329 84.5987 49.2374 85.0609 49.5327C85.5232 49.8281 86.0368 49.9757 86.6018 49.9757ZM94.372 51.3239V43.2346H92.9852V41.6745H94.4298C94.4426 41.0196 94.5389 40.4739 94.7187 40.0373C94.8984 39.6008 95.1424 39.2156 95.4506 38.8817C96.2081 38.1627 97.1904 37.8031 98.3974 37.8031C98.834 37.8031 99.2192 37.8352 99.553 37.8994V39.4403C99.1293 39.4018 98.7698 39.3825 98.4744 39.3825C98.0379 39.3825 97.6848 39.4274 97.4151 39.5173C97.1583 39.5944 96.9272 39.7292 96.7217 39.9218C96.3109 40.307 96.099 40.8912 96.0861 41.6745H98.8211V43.2346H95.9706V51.3239H94.372ZM102.78 51.3239V43.2346H101.393V41.6745H102.837C102.85 41.0196 102.947 40.4739 103.126 40.0373C103.306 39.6008 103.55 39.2156 103.858 38.8817C104.616 38.1627 105.598 37.8031 106.805 37.8031C107.242 37.8031 107.627 37.8352 107.961 37.8994V39.4403C107.537 39.4018 107.177 39.3825 106.882 39.3825C106.445 39.3825 106.092 39.4274 105.823 39.5173C105.566 39.5944 105.335 39.7292 105.129 39.9218C104.718 40.307 104.507 40.8912 104.494 41.6745H107.229V43.2346H104.378V51.3239H102.78ZM110.763 39.7292C110.481 39.7292 110.25 39.6393 110.07 39.4595C109.89 39.2541 109.8 39.023 109.8 38.7662C109.8 38.4965 109.897 38.2654 110.089 38.0728C110.269 37.8802 110.5 37.7839 110.783 37.7839C111.052 37.7839 111.284 37.8802 111.476 38.0728C111.656 38.2397 111.746 38.4708 111.746 38.7662C111.746 39.0486 111.656 39.2798 111.476 39.4595C111.271 39.6393 111.04 39.7292 110.783 39.7292H110.763ZM111.572 51.3047H110.051V41.6745H111.572V51.3047ZM118.319 51.4588C117.561 51.4588 116.861 51.3047 116.219 50.9965C115.577 50.6755 115.044 50.2261 114.621 49.6483C114.287 49.2246 114.03 48.7495 113.85 48.223C113.683 47.6837 113.6 47.1316 113.6 46.5666C113.6 45.9631 113.696 45.3853 113.889 44.8332C114.094 44.2682 114.383 43.761 114.756 43.3116C115.192 42.798 115.719 42.4 116.335 42.1175C116.951 41.835 117.612 41.6937 118.319 41.6937C118.884 41.6937 119.423 41.7965 119.937 42.0019C120.463 42.1945 120.932 42.4642 121.343 42.8108C121.651 43.0677 121.927 43.3758 122.171 43.7353C122.415 44.0949 122.594 44.4608 122.71 44.8332L121.323 45.411C121.105 44.7305 120.72 44.1976 120.168 43.8124C119.628 43.4143 119.018 43.2153 118.338 43.2153C117.85 43.2153 117.394 43.318 116.97 43.5235C116.56 43.7161 116.206 43.9922 115.911 44.3517C115.398 44.9423 115.141 45.6678 115.141 46.5281C115.141 47.3499 115.378 48.0689 115.853 48.6853C116.149 49.0576 116.508 49.3465 116.932 49.552C117.369 49.7574 117.837 49.8602 118.338 49.8602C118.89 49.8602 119.397 49.7253 119.86 49.4557C120.335 49.186 120.733 48.8073 121.054 48.3193L122.44 49.0512C121.927 49.8216 121.323 50.4187 120.63 50.8424C119.937 51.2533 119.166 51.4588 118.319 51.4588ZM133.425 51.3625H131.73L137.335 37.8224H138.683L144.115 51.3625H142.362L140.706 47.2215H135.139L133.425 51.3625ZM137.99 40.2877L135.737 45.7192H140.109L137.99 40.2877ZM150.187 41.6745C151.343 41.6745 152.261 42.0147 152.942 42.6953C153.622 43.3758 153.962 44.3003 153.962 45.4688V51.3239H152.364V45.6036C152.364 44.8332 152.171 44.249 151.786 43.8509C151.414 43.44 150.868 43.2346 150.149 43.2346C149.391 43.2346 148.775 43.4336 148.3 43.8316C147.838 44.2297 147.606 44.769 147.606 45.4495V51.3239H146.008V41.6745H147.626V42.4064C147.96 42.1753 148.351 41.9955 148.801 41.8671C149.25 41.7387 149.712 41.6745 150.187 41.6745ZM160.333 51.4588C159.499 51.4588 158.735 51.2469 158.041 50.8232C157.348 50.3866 156.802 49.796 156.404 49.0512C156.006 48.3065 155.807 47.4847 155.807 46.5859C155.807 45.6742 156.006 44.846 156.404 44.1013C156.802 43.3566 157.342 42.7659 158.022 42.3293C158.716 41.8928 159.486 41.6745 160.333 41.6745C160.95 41.6745 161.515 41.8029 162.028 42.0597C162.542 42.3165 162.985 42.676 163.357 43.1383V41.6745H164.86V51.3047H163.357V49.995C162.998 50.4444 162.555 50.8039 162.028 51.0736C161.502 51.3304 160.937 51.4588 160.333 51.4588ZM160.314 49.9757C160.879 49.9757 161.393 49.8281 161.855 49.5327C162.317 49.2246 162.677 48.8137 162.934 48.3001C163.203 47.7865 163.338 47.2151 163.338 46.5859C163.338 45.9439 163.203 45.3661 162.934 44.8524C162.677 44.326 162.317 43.9151 161.855 43.6198C161.393 43.3245 160.879 43.1768 160.314 43.1768C159.749 43.1768 159.229 43.3309 158.754 43.639C158.292 43.9344 157.926 44.3453 157.656 44.8717C157.399 45.3853 157.271 45.9567 157.271 46.5859C157.271 47.2151 157.406 47.7929 157.676 48.3193C157.945 48.8329 158.311 49.2374 158.773 49.5327C159.236 49.8281 159.749 49.9757 160.314 49.9757ZM168.219 51.3047H166.698V37.8224H168.219V51.3047ZM173.531 55.1568H171.875L173.397 51.3625L170.064 41.6745H171.74L174.302 49.109L176.844 41.6745H178.52L173.531 55.1568ZM185.518 51.401C184.49 51.401 183.624 51.1249 182.917 50.5728C182.481 50.2389 182.147 49.7767 181.916 49.186C181.698 48.5825 181.588 47.8763 181.588 47.0674V43.1961H180.105V41.6937H181.588V37.8224H183.11V41.6745H185.749V43.1768H183.11V46.9133C183.11 48.0689 183.328 48.8522 183.765 49.2631C184.201 49.6997 184.786 49.9179 185.518 49.9179C185.595 49.9179 185.954 49.8858 186.596 49.8216V51.3239C185.993 51.3753 185.633 51.401 185.518 51.401ZM189.385 39.7292C189.103 39.7292 188.871 39.6393 188.692 39.4595C188.512 39.2541 188.422 39.023 188.422 38.7662C188.422 38.4965 188.518 38.2654 188.711 38.0728C188.891 37.8802 189.122 37.7839 189.404 37.7839C189.674 37.7839 189.905 37.8802 190.098 38.0728C190.277 38.2397 190.367 38.4708 190.367 38.7662C190.367 39.0486 190.277 39.2798 190.098 39.4595C189.892 39.6393 189.661 39.7292 189.404 39.7292H189.385ZM190.194 51.3047H188.672V41.6745H190.194V51.3047ZM196.94 51.4588C196.183 51.4588 195.483 51.3047 194.841 50.9965C194.199 50.6755 193.666 50.2261 193.242 49.6483C192.908 49.2246 192.652 48.7495 192.472 48.223C192.305 47.6837 192.221 47.1316 192.221 46.5666C192.221 45.9631 192.318 45.3853 192.51 44.8332C192.716 44.2682 193.005 43.761 193.377 43.3116C193.814 42.798 194.34 42.4 194.956 42.1175C195.573 41.835 196.234 41.6937 196.94 41.6937C197.505 41.6937 198.045 41.7965 198.558 42.0019C199.085 42.1945 199.553 42.4642 199.964 42.8108C200.272 43.0677 200.548 43.3758 200.792 43.7353C201.036 44.0949 201.216 44.4608 201.332 44.8332L199.945 45.411C199.727 44.7305 199.341 44.1976 198.789 43.8124C198.25 43.4143 197.64 43.2153 196.96 43.2153C196.472 43.2153 196.016 43.318 195.592 43.5235C195.181 43.7161 194.828 43.9922 194.533 44.3517C194.019 44.9423 193.762 45.6678 193.762 46.5281C193.762 47.3499 194 48.0689 194.475 48.6853C194.77 49.0576 195.13 49.3465 195.554 49.552C195.99 49.7574 196.459 49.8602 196.96 49.8602C197.512 49.8602 198.019 49.7253 198.481 49.4557C198.956 49.186 199.354 48.8073 199.675 48.3193L201.062 49.0512C200.548 49.8216 199.945 50.4187 199.252 50.8424C198.558 51.2533 197.788 51.4588 196.94 51.4588ZM206.77 51.478C206.14 51.478 205.511 51.3625 204.882 51.1313C204.266 50.8874 203.701 50.5407 203.187 50.0913L203.611 48.6468C204.06 49.0962 204.567 49.4428 205.132 49.6868C205.71 49.9179 206.25 50.0335 206.75 50.0335C207.379 50.0335 207.835 49.9372 208.118 49.7446C208.413 49.552 208.561 49.2438 208.561 48.8201C208.561 48.5504 208.394 48.3129 208.06 48.1075C207.739 47.902 207.206 47.6837 206.461 47.4526C205.794 47.2215 205.287 47.016 204.94 46.8363C203.874 46.3355 203.341 45.5715 203.341 44.5443C203.341 43.684 203.669 42.997 204.323 42.4834C204.991 41.957 205.839 41.6937 206.866 41.6937C207.97 41.6937 208.985 42.0468 209.909 42.7531L209.562 44.1976C209.01 43.8124 208.522 43.5556 208.099 43.4272C207.675 43.2859 207.264 43.2153 206.866 43.2153C206.314 43.2153 205.858 43.3373 205.498 43.5813C205.152 43.8252 204.978 44.1398 204.978 44.525C204.978 44.9616 205.235 45.3019 205.749 45.5458C206.018 45.6742 206.461 45.8476 207.078 46.0659C208.092 46.3997 208.85 46.7849 209.35 47.2215C209.864 47.658 210.121 48.1909 210.121 48.8201C210.121 49.6932 209.826 50.3545 209.235 50.8039C208.657 51.2533 207.835 51.478 206.77 51.478Z" fill="#1C1D53"/>
</svg>
