<svg width="32" height="33" viewBox="0 0 32 33" fill="none" xmlns="http://www.w3.org/2000/svg">
<path d="M26 4.5H23V3.5C23 3.23478 22.8946 2.98043 22.7071 2.79289C22.5196 2.60536 22.2652 2.5 22 2.5C21.7348 2.5 21.4804 2.60536 21.2929 2.79289C21.1054 2.98043 21 3.23478 21 3.5V4.5H11V3.5C11 3.23478 10.8946 2.98043 10.7071 2.79289C10.5196 2.60536 10.2652 2.5 10 2.5C9.73478 2.5 9.48043 2.60536 9.29289 2.79289C9.10536 2.98043 9 3.23478 9 3.5V4.5H6C5.46957 4.5 4.96086 4.71071 4.58579 5.08579C4.21071 5.46086 4 5.96957 4 6.5V26.5C4 27.0304 4.21071 27.5391 4.58579 27.9142C4.96086 28.2893 5.46957 28.5 6 28.5H26C26.5304 28.5 27.0391 28.2893 27.4142 27.9142C27.7893 27.5391 28 27.0304 28 26.5V6.5C28 5.96957 27.7893 5.46086 27.4142 5.08579C27.0391 4.71071 26.5304 4.5 26 4.5ZM9 6.5V7.5C9 7.76522 9.10536 8.01957 9.29289 8.20711C9.48043 8.39464 9.73478 8.5 10 8.5C10.2652 8.5 10.5196 8.39464 10.7071 8.20711C10.8946 8.01957 11 7.76522 11 7.5V6.5H21V7.5C21 7.76522 21.1054 8.01957 21.2929 8.20711C21.4804 8.39464 21.7348 8.5 22 8.5C22.2652 8.5 22.5196 8.39464 22.7071 8.20711C22.8946 8.01957 23 7.76522 23 7.5V6.5H26V10.5H6V6.5H9ZM26 26.5H6V12.5H26V26.5Z" fill="black"/>
</svg>
